<svg width="32" height="32" viewBox="0 0 32 32" fill="none" xmlns="http://www.w3.org/2000/svg">
<g clip-path="url(#clip0)">
<path d="M31.9973 15.9988C31.9973 7.16288 24.8345 0 15.9987 0C7.16276 0 -0.00012207 7.16288 -0.00012207 15.9988C-0.00012207 23.9843 5.8504 30.6029 13.4988 31.8032V20.6235H9.43665V15.9988H13.4988V12.474C13.4988 8.46435 15.8873 6.24952 19.5417 6.24952C21.2921 6.24952 23.1231 6.56199 23.1231 6.56199V10.4992H21.1057C19.1183 10.4992 18.4984 11.7324 18.4984 12.9977V15.9988H22.9356L22.2263 20.6235H18.4984V31.8032C26.1469 30.6029 31.9973 23.9843 31.9973 15.9988Z" fill="#DABB90"/>
</g>
<defs>
<clipPath id="clip0">
<rect width="32" height="32" fill="white" transform="translate(-0.00012207)"/>
</clipPath>
</defs>
</svg>
