<svg width="32" height="32" viewBox="0 0 32 32" fill="none" xmlns="http://www.w3.org/2000/svg">
<g clip-path="url(#clip0)">
<path d="M15.9999 0C11.6532 0 11.1105 0.02 9.40388 0.096C7.69988 0.176 6.53988 0.444 5.51988 0.84C4.46788 1.248 3.57454 1.796 2.68521 2.68533C1.79588 3.57467 1.24654 4.46667 0.839878 5.52C0.443878 6.54 0.174545 7.7 0.0958779 9.404C0.0158779 11.1107 -0.00012207 11.6533 -0.00012207 16C-0.00012207 20.3467 0.0198779 20.8893 0.0958779 22.596C0.175878 24.2987 0.443878 25.46 0.839878 26.48C1.24788 27.5307 1.79588 28.4253 2.68521 29.3147C3.57454 30.2027 4.46654 30.7533 5.51988 31.16C6.54121 31.5547 7.70121 31.8253 9.40388 31.904C11.1105 31.984 11.6532 32 15.9999 32C20.3465 32 20.8892 31.98 22.5959 31.904C24.2985 31.824 25.4599 31.5547 26.4799 31.16C27.5305 30.752 28.4252 30.2027 29.3145 29.3147C30.2025 28.4253 30.7532 27.5347 31.1599 26.48C31.5545 25.46 31.8252 24.2987 31.9039 22.596C31.9839 20.8893 31.9999 20.3467 31.9999 16C31.9999 11.6533 31.9799 11.1107 31.9039 9.404C31.8239 7.70133 31.5545 6.53867 31.1599 5.52C30.7519 4.468 30.2025 3.57467 29.3145 2.68533C28.4252 1.796 27.5345 1.24667 26.4799 0.84C25.4599 0.444 24.2985 0.174667 22.5959 0.096C20.8892 0.016 20.3465 0 15.9999 0ZM15.9999 2.88C20.2705 2.88 20.7799 2.90133 22.4665 2.97467C24.0265 3.048 24.8732 3.30667 25.4359 3.528C26.1852 3.81733 26.7159 4.164 27.2785 4.72267C27.8372 5.28267 28.1839 5.81467 28.4732 6.564C28.6919 7.12667 28.9532 7.97333 29.0239 9.53333C29.0999 11.2213 29.1172 11.728 29.1172 16C29.1172 20.272 29.0972 20.78 29.0185 22.4667C28.9372 24.0267 28.6772 24.8733 28.4572 25.436C28.1585 26.1853 27.8185 26.716 27.2585 27.2787C26.6999 27.8373 26.1599 28.184 25.4185 28.4733C24.8585 28.692 23.9985 28.9533 22.4385 29.024C20.7399 29.1 20.2399 29.1173 15.9599 29.1173C11.6785 29.1173 11.1785 29.0973 9.48121 29.0187C7.91988 28.9373 7.05988 28.6773 6.49988 28.4573C5.74121 28.1587 5.21988 27.8187 4.66121 27.2587C4.09988 26.7 3.74121 26.16 3.46121 25.4187C3.24121 24.8587 2.98254 23.9987 2.90121 22.4387C2.84121 20.7587 2.81988 20.24 2.81988 15.98C2.81988 11.7187 2.84121 11.1987 2.90121 9.49867C2.98254 7.93867 3.24121 7.08 3.46121 6.52C3.74121 5.76 4.09988 5.24 4.66121 4.67867C5.21988 4.12 5.74121 3.76 6.49988 3.48133C7.05988 3.26 7.90121 3 9.46121 2.92C11.1612 2.86 11.6612 2.84 15.9399 2.84L15.9999 2.88ZM15.9999 7.784C11.4599 7.784 7.78388 11.464 7.78388 16C7.78388 20.54 11.4639 24.216 15.9999 24.216C20.5399 24.216 24.2159 20.536 24.2159 16C24.2159 11.46 20.5359 7.784 15.9999 7.784ZM15.9999 21.3333C13.0532 21.3333 10.6665 18.9467 10.6665 16C10.6665 13.0533 13.0532 10.6667 15.9999 10.6667C18.9465 10.6667 21.3332 13.0533 21.3332 16C21.3332 18.9467 18.9465 21.3333 15.9999 21.3333ZM26.4612 7.46C26.4612 8.52 25.5999 9.38 24.5412 9.38C23.4812 9.38 22.6212 8.51867 22.6212 7.46C22.6212 6.40133 23.4825 5.54133 24.5412 5.54133C25.5985 5.54 26.4612 6.40133 26.4612 7.46Z" fill="#DABB90"/>
</g>
<defs>
<clipPath id="clip0">
<rect width="32" height="32" fill="white" transform="translate(-0.00012207)"/>
</clipPath>
</defs>
</svg>
