<svg width="32" height="32" viewBox="0 0 32 32" fill="none" xmlns="http://www.w3.org/2000/svg">
<g clip-path="url(#clip0)">
<path d="M15.9999 0C7.19988 0 -0.00012207 7.2 -0.00012207 16C-0.00012207 24.8 7.19988 32 15.9999 32C24.7999 32 31.9999 24.8 31.9999 16C31.9999 7.2 24.8799 0 15.9999 0ZM23.3612 23.12C23.0412 23.5987 22.4812 23.76 21.9999 23.44C18.2399 21.12 13.5199 20.6387 7.91854 21.9187C7.36121 22.0813 6.87988 21.68 6.71988 21.2C6.55988 20.6387 6.95988 20.16 7.43988 20C13.5199 18.6387 18.7999 19.2 22.9599 21.76C23.5199 22 23.5985 22.6387 23.3612 23.12ZM25.2812 18.72C24.8799 19.28 24.1599 19.52 23.5985 19.12C19.2799 16.48 12.7199 15.68 7.67988 17.28C7.04121 17.44 6.31988 17.12 6.15988 16.48C5.99988 15.84 6.31988 15.1187 6.95988 14.9587C12.7999 13.2 19.9999 14.0813 24.9599 17.12C25.4412 17.3613 25.6799 18.16 25.2812 18.72ZM25.4412 14.24C20.3199 11.2 11.7599 10.88 6.87988 12.4013C6.07988 12.64 5.27988 12.16 5.03988 11.44C4.79988 10.6387 5.27988 9.84 5.99988 9.59867C11.6799 7.91867 21.0399 8.23867 26.9612 11.76C27.6799 12.16 27.9199 13.12 27.5199 13.84C27.1212 14.4013 26.1599 14.6387 25.4412 14.24Z" fill="#DABB90"/>
</g>
<defs>
<clipPath id="clip0">
<rect width="32" height="32" fill="white" transform="translate(-0.00012207)"/>
</clipPath>
</defs>
</svg>
