<svg width="32" height="32" viewBox="0 0 32 32" fill="none" xmlns="http://www.w3.org/2000/svg">
<g clip-path="url(#clip0)">
<path d="M31.9385 6.09196C30.7585 6.61063 29.4985 6.96396 28.1719 7.1253C29.5239 6.31063 30.5639 5.02663 31.0559 3.49463C29.7879 4.23463 28.3825 4.7733 26.8865 5.0733C25.6919 3.79463 23.9892 2.99463 22.0985 2.99463C18.4759 2.99463 15.5385 5.93196 15.5385 9.55063C15.5385 10.0706 15.5985 10.5706 15.7079 11.0493C10.2545 10.792 5.42121 8.1733 2.18654 4.21463C1.61721 5.1773 1.29854 6.29596 1.29854 7.51463C1.29854 9.79463 2.45854 11.7986 4.21588 12.976C3.13988 12.9413 2.12788 12.6453 1.24521 12.1546V12.236C1.24521 15.416 3.50254 18.068 6.50654 18.672C5.95588 18.82 5.37454 18.9 4.77854 18.9C4.35988 18.9 3.95854 18.86 3.55721 18.7853C4.39854 21.3893 6.81721 23.288 9.69588 23.3413C7.45588 25.1 4.61721 26.148 1.55988 26.148C1.03988 26.148 0.521211 26.1173 -0.00012207 26.0586C2.91854 27.9173 6.35721 29.004 10.0759 29.004C22.1479 29.004 28.7412 19.0093 28.7412 10.356C28.7412 10.0773 28.7412 9.79596 28.7212 9.51596C30.0025 8.59729 31.1212 7.43596 32.0012 6.11863L31.9385 6.09196Z" fill="#DABB90"/>
</g>
<defs>
<clipPath id="clip0">
<rect width="32" height="32" fill="white" transform="translate(-0.00012207)"/>
</clipPath>
</defs>
</svg>
