<svg width="235" height="60" viewBox="0 0 235 60" fill="none" xmlns="http://www.w3.org/2000/svg">
<path d="M31.6673 59.2222C30.627 58.4615 30.6496 58.2632 32.6996 50.1713C33.8524 45.621 34.9156 40.4523 35.0622 38.6851L35.3287 35.4722L32.5824 40.8004C27.6907 50.2908 24.0886 54.8992 19.4266 57.6313C16.505 59.3434 11.0922 59.9198 7.46703 58.9049C0.0757455 56.8354 -2.56293 46.9447 2.92638 41.8848C6.23221 38.8376 15.6877 40.0583 14.6285 43.3955C14.2795 44.4951 13.9937 44.5837 11.8377 44.2604C9.73659 43.9453 9.25893 44.0769 8.02506 45.3108C6.93374 46.4021 6.61445 47.2774 6.61445 49.1778C6.61445 51.2441 6.88378 51.8608 8.3103 53.0612C11.2353 55.5224 15.7292 54.7149 19.3497 51.0776C21.8509 48.5648 26.1556 40.6533 31.6673 28.4397C37.3938 15.7497 40.8409 8.89917 43.835 4.25798C46.5489 0.0510172 46.9797 -0.304941 48.8032 0.152727C50.8681 0.670989 50.9758 2.53028 49.174 6.55432C45.7762 14.1428 43.3336 23.062 42.6885 30.2359L42.3168 34.3698L47.7043 26.6532C54.5413 16.8603 58.4931 11.958 64.6992 5.5703C68.6602 1.49348 69.9673 0.471817 71.2221 0.471817C73.196 0.471817 73.7863 1.83318 72.6367 3.73397C72.1633 4.51658 69.3696 9.12545 66.4284 13.9759C55.5267 31.9543 50.5912 45.1525 52.3406 51.649C53.0933 54.4444 54.3613 54.8924 57.4465 53.4532C60.8116 51.8835 62.5154 50.1301 64.5042 46.1904C68.141 38.986 75.3545 33.543 81.2657 33.543C82.8171 33.543 84.5823 33.8903 85.1883 34.3147C86.1327 34.9762 86.4408 34.9762 87.3454 34.3147C88.7209 33.309 91.1833 33.3274 92.0318 34.3498C92.5758 35.0052 92.1307 36.2726 89.661 41.1019C87.9887 44.3718 86.047 48.084 85.346 49.3514C84.6451 50.6188 84.2411 51.8252 84.4483 52.0324C85.71 53.2941 91.408 47.2352 97.2085 38.4641C99.2138 35.4319 99.2289 35.3673 98.3999 33.3833C97.3225 30.8047 97.3207 25.6838 98.3964 23.6036C99.2999 21.8564 101.757 20.3145 103.638 20.3145C104.283 20.3145 105.536 21.0396 106.422 21.9257C107.737 23.2412 108.033 24.0039 108.033 26.0816C108.033 27.5385 107.562 29.5499 106.93 30.7871C105.479 33.6318 105.511 33.7388 107.698 33.3839C109.961 33.0165 111.891 34.184 111.891 35.9206C111.891 36.5898 110.14 39.3552 107.985 42.0902C100.69 51.3473 99.5119 55.9905 105.045 53.6786C108.651 52.1718 110.477 50.3743 119.059 39.8784C125.31 32.2345 127.7 29.6847 128.615 29.6847C130.024 29.6847 132.285 31.1162 132.285 32.0084C132.285 32.3426 131.253 33.9833 129.991 35.6542L127.697 38.6924L128.429 41.2162C128.832 42.6043 129.269 44.7941 129.401 46.0825C129.532 47.3709 129.762 48.4251 129.91 48.4251C130.059 48.4251 131.609 47.4234 133.354 46.1991C135.886 44.4231 136.814 43.3369 137.943 40.825C144.123 27.0887 149.02 16.5313 149.695 15.4917C150.647 14.0243 153.801 13.7733 154.884 15.0786C155.616 15.96 155.603 15.996 149.722 29.8366L147.198 35.776L149.574 34.3839C152.179 32.8571 154.206 32.6181 155.535 33.6808C156.787 34.682 157.653 37.7343 157.264 39.771C156.912 41.6114 154.312 47.0229 151.848 51.0432C150.991 52.4414 150.679 53.3858 151.075 53.3858C152.563 53.3858 156.453 49.4358 157.922 46.4334C159.852 42.4876 165.819 36.3872 169.49 34.6051C172.971 32.9156 177.378 32.7785 179.067 34.307C180.066 35.2114 180.258 35.2358 180.542 34.4946C181.237 32.6846 186.301 32.9776 186.301 34.8278C186.301 35.2462 184.565 38.9395 182.443 43.035C180.321 47.1305 178.585 51.0186 178.585 51.6753C178.585 53.7824 180.096 53.6074 183.017 51.1622C185.26 49.2841 186.334 47.7316 188.491 43.2512C193.857 32.1032 202.002 21.834 209.444 16.8344C213.777 13.9233 217.719 14.2257 217.719 17.4694C217.719 19.1911 214.149 26.8873 211.699 30.4488C209.195 34.0879 203.59 39.3321 198.388 42.9032C192.67 46.8279 192.453 47.0755 192.033 50.1357C191.624 53.1197 193.036 54.8541 195.392 54.2627C197.85 53.6458 202.9 47.894 206.122 42.04C210.363 34.3367 212.47 31.0645 215.979 26.7337C219.654 22.1981 227.496 15.5943 229.81 15.086C232.067 14.5902 233.638 15.1776 234.009 16.6564C234.398 18.2053 232.215 24.2834 229.777 28.4396C227.485 32.3481 219.901 39.9568 214.252 44.0156C209.815 47.2037 208.88 48.8309 209.673 51.9883C210.695 56.0629 215.399 54.361 220.555 48.051C223.551 44.3856 224.02 44.0168 224.753 44.7502C225.945 45.9421 225.326 47.5879 222.058 51.9168C218.964 56.0156 214.748 59.1695 211.607 59.7338C208.147 60.3556 204.465 57.9419 203.213 54.2308C203.114 53.9378 202.183 54.4997 201.144 55.4797C198.531 57.944 194.218 60 191.663 60C190.033 60 189.14 59.616 187.913 58.3888C187.026 57.5027 186.301 56.2625 186.301 55.6329C186.301 55.0033 186.167 54.4881 186.002 54.4881C185.838 54.4881 184.411 55.463 182.833 56.6545C177.984 60.3146 175.452 60.597 173.136 57.7364L172.208 56.59L170.298 57.7134C169.247 58.3313 167.206 59.1003 165.762 59.4225C162.703 60.1047 160.392 59.3818 158.27 57.0789L156.97 55.6692L154.781 57.255C151.439 59.6758 149.24 60.245 147.234 59.208C145.16 58.1354 143.856 56.3102 143.873 54.5033C143.88 53.7371 145.368 50.2737 147.18 46.807C148.992 43.3402 150.474 40.3018 150.474 40.055C150.474 38.9967 148.896 39.7952 146.106 42.2655C143.516 44.5583 142.699 45.8306 140.008 51.7658C136.455 59.6024 135.124 60.9449 132.423 59.4198C130.842 58.5271 130.466 56.5327 131.455 54.274C131.754 53.5902 130.541 54.1947 127.92 56.0357C121.317 60.6724 115.999 61.0512 112.35 57.1448L110.876 55.5675L107.939 57.3257C105.839 58.5826 104.104 59.1543 101.854 59.3309C98.9291 59.5607 98.5889 59.4599 97.0313 57.9023C95.8134 56.6844 95.3555 55.708 95.3555 54.329C95.3555 51.6832 98.6125 45.4528 101.951 41.7116C103.701 39.751 104.518 38.4401 104.136 38.2044C103.396 37.7468 103.662 37.4434 98.3972 44.7463C92.5896 52.8025 89.2499 56.3408 85.8583 58.0309C82.4142 59.7472 80.1262 59.8325 78.5006 58.3054L77.2835 57.1619L75.0421 58.3054C72.1233 59.7945 68.1195 59.8098 65.7107 58.3412C64.7153 57.7343 63.7606 56.8721 63.5891 56.4253C63.3375 55.7697 62.8308 55.92 60.9656 57.2033C57.0409 59.9036 52.2754 60.5389 48.9238 58.8087C46.361 57.4858 45.4122 51.7887 46.4601 44.0156L46.8688 40.9841L45.1444 44.0156C40.363 52.4212 34.6535 60 33.1024 60C32.8981 60 32.2523 59.65 31.6673 59.2222ZM121.562 54.2376C122.661 53.139 122.913 52.3359 122.907 49.9659C122.899 46.5861 122.429 44.4526 121.745 44.682C120.774 45.0076 116.301 50.9309 116.301 51.8911C116.301 52.9741 118.64 55.5905 119.608 55.5905C119.938 55.5905 120.818 54.9817 121.562 54.2376ZM170.157 51.4659C174.737 47.545 178.003 37.9473 174.907 37.5063C170.836 36.9266 163.136 45.6744 162.984 51.0521C162.874 54.9271 165.909 55.1021 170.157 51.4659ZM75.0451 52.3489C78.7777 49.9818 81.8537 45.0613 82.4864 40.4455C82.861 37.7123 82.1676 36.995 79.7396 37.6044C74.6907 38.8716 67.1152 50.2971 69.4548 53.1162C70.483 54.3551 72.2679 54.1102 75.0451 52.3489ZM202.715 33.6808C206.654 29.8039 212.413 21.4169 211.137 21.4169C210.882 21.4169 208.714 23.4873 206.318 26.0178C202.141 30.4306 196.817 37.9525 197.87 37.9525C198.148 37.9525 200.328 36.0303 202.715 33.6808ZM220.725 32.7162C223.441 30.2184 228.903 21.4169 227.737 21.4169C226.142 21.4169 214.963 35.5679 214.963 37.5868C214.963 37.9142 216.125 37.0763 217.544 35.7247C218.964 34.3732 220.396 33.0194 220.725 32.7162ZM103.56 28.528C104.094 26.9962 103.638 24.724 102.797 24.724C102.094 24.724 101.393 27.2128 101.701 28.6147C102.16 30.7037 102.812 30.6733 103.56 28.528Z" fill="white"/>
</svg>
